# xmcd CD database file
#
# Track frame offsets:
#	150
#	44036
#	67935
#	97742
#	128916
#	167677
#	211699
#
# Disc length: 3199 seconds
#
# Revision: 4
# Processed by: cddbd v1.5.1PL2 Copyright (c) Steve Scherf et al.
# Submitted via: CDex 1.60beta1
#
DISCID=560c7d07
DTITLE=Art Blakey Quintet - A Night at Birdland Vol.1
DYEAR=1954
DGENRE=Jazz
TTITLE0=Split Kick
TTITLE1=Once in a While
TTITLE2=Quicksilver
TTITLE3=Wee-Dot
TTITLE4=Blues
TTITLE5=A Night in Tunisia
TTITLE6=Mayreh
EXTD=YEAR: 1954
EXTT0=
EXTT1=
EXTT2=
EXTT3=
EXTT4=
EXTT5=
EXTT6=
PLAYORDER=
